<?xml version="1.0" encoding="UTF-8" standalone="no"?>
<!-- Created with Inkscape (http://www.inkscape.org/) -->

<svg
   width="71.146996mm"
   height="211.05302mm"
   viewBox="0 0 71.146996 211.05302"
   version="1.1"
   id="svg1"
   xmlns="http://www.w3.org/2000/svg"
   xmlns:svg="http://www.w3.org/2000/svg">
  <defs
     id="defs1" />
  <ellipse
     style="fill:#6e472e;stroke:#7f5913;stroke-width:0"
     id="path2"
     ry="49.34314"
     rx="11.435982"
     cy="107.29043"
     cx="59.711014" />
  <rect
     style="fill:#6e472e;fill-opacity:1;stroke:#7f5913;stroke-width:0;stroke-dasharray:none;stroke-opacity:1"
     id="rect4"
     width="20.405899"
     height="98.425591"
     x="36.368141"
     y="57.620388" />
  <g
     id="layer1"
     transform="translate(-69.817247,-25.664908)">
    <rect
       style="fill:#6e472e;fill-opacity:1;stroke:#b8821b;stroke-width:0;stroke-dasharray:none"
       id="rect1"
       width="11.721502"
       height="134.99057"
       x="92.679581"
       y="64.5896"
       ry="1.8137448" />
    <rect
       style="fill:#5d3c27;fill-opacity:1;stroke:#7f5913;stroke-width:0;stroke-dasharray:none;stroke-opacity:1"
       id="rect2"
       width="2.3296003"
       height="126.81929"
       x="104.04255"
       y="68.570015"
       ry="0" />
    <path
       style="fill:#5d3c27;fill-opacity:1;stroke:#7f5913;stroke-width:0;stroke-dasharray:none;stroke-opacity:1"
       id="path3"
       d="m 121.20486,77.676922 -9.09415,-0.08601 -9.09128,0.244486 4.62157,-7.832761 4.3339,-7.995518 4.47259,7.918776 z"
       transform="matrix(0,0.40310332,-0.15577886,0,116.02983,23.516347)" />
    <rect
       style="fill:#5d3c27;fill-opacity:1;stroke:#7f5913;stroke-width:0;stroke-dasharray:none;stroke-opacity:1"
       id="rect6"
       width="0.82833368"
       height="98.931046"
       x="115.40801"
       y="82.998558"
       ry="0.48205152" />
    <path
       style="fill:#5d3c27;fill-opacity:1;stroke:#7f5913;stroke-width:0;stroke-dasharray:none;stroke-opacity:1"
       id="path5"
       d="m 121.20486,77.676922 -9.09415,-0.08601 -9.09128,0.244486 4.62157,-7.832761 4.3339,-7.995518 4.47259,7.918776 z"
       transform="matrix(0,-0.40310332,-0.15577886,0,116.02983,113.86503)" />
    <path
       style="fill:#5d3c27;fill-opacity:1;stroke:#7f5913;stroke-width:0;stroke-dasharray:none;stroke-opacity:1"
       id="path7"
       d="m 121.20486,77.676922 -9.09415,-0.08601 -9.09128,0.244486 4.62157,-7.832761 4.3339,-7.995518 4.47259,7.918776 z"
       transform="matrix(0,0.40310332,-0.15577886,0,116.04486,150.20318)" />
  </g>
  <rect
     style="fill:#6e472e;fill-opacity:1;stroke:#7f5913;stroke-width:0;stroke-dasharray:none;stroke-opacity:1"
     id="rect5"
     width="14.284129"
     height="119.37561"
     x="46.060936"
     y="47.145382"
     ry="2.9646263" />
  <path
     style="fill:#6e472e;fill-opacity:1;stroke:#7f5913;stroke-width:0;stroke-dasharray:none;stroke-opacity:1"
     d="m 46.037123,47.947075 c 0.11083,2.73891 -0.0798,0.637394 0.16167,3.941702 l 14.11408,0.494102 -0.0327,-5.04376 C 58.813753,20.251305 40.749353,-0.99665509 23.865512,0.03610991 15.093112,0.35119891 11.375684,2.4706629 8.1394628,5.0684469 1.0059808,10.794647 0.40324084,17.863188 0.06888584,23.241484 -0.58221416,33.714798 3.4559528,44.070601 9.0643928,45.40642 10.464846,45.73998 11.925827,45.5004 13.124345,45.49436 16.101944,45.47933 17.181386,44.349643 9.2535738,34.076569 6.8904848,31.014415 9.0384888,22.359024 13.034308,17.239557 18.704936,9.9743139 40.321773,1.2443299 46.037163,47.947083 Z"
     id="path12" />
  <path
     style="fill:#6e472e;fill-opacity:1;stroke:#7f5913;stroke-width:0;stroke-dasharray:none;stroke-opacity:1"
     d="m 46.079633,163.10594 c 0.11083,-2.73892 -0.0798,-0.6374 0.16167,-3.94171 l 14.11408,-0.4941 -0.0327,5.04377 c -1.46642,27.08781 -19.53082,48.33577 -36.414658,47.30301 -8.7724,-0.31509 -12.489828,-2.43456 -15.7260492,-5.03234 -7.133482,-5.7262 -7.73622196,-12.79474 -8.07057696,-18.17303 -0.6511,-10.47332 3.38706696,-20.82913 8.99550696,-22.16495 1.4004532,-0.33356 2.8614342,-0.094 4.0599522,-0.088 2.977599,0.015 4.057041,1.14473 -3.8707712,11.4178 -2.363089,3.06216 -0.215085,11.71755 3.7807342,16.83701 5.670628,7.26525 27.287462,15.99523 33.002852,-30.70753 z"
     id="path6" />
  <path
     style="fill:#cd922b;fill-opacity:1;stroke:#7f5913;stroke-width:0"
     id="path11"
     d="m 63.683409,125.07116 -18.373366,-8.63599 -6.41511,19.26155 -1.7077,-20.2298 -19.888544,4.07513 16.665667,-11.59381 -13.473433,-15.186422 18.373366,8.635992 6.41511,-19.261552 1.707699,20.229792 19.888544,-4.075121 -16.665667,11.593811 z"
     transform="matrix(0.33705128,-0.03315766,0.03646689,0.35524551,41.419953,69.695392)" />
  <path
     style="fill:#cf932b;fill-opacity:1;stroke:#7f5913;stroke-width:0"
     d="m 54.874653,94.578002 c 1.20243,-1.96397 0.87041,-8.36193 -2.69265,-14.83968 7.48039,-8.344507 5.33479,-13.365228 6.54042,-19.910518 3.61444,9.909818 -3.06275,23.200688 5.65142,31.383398 -5.64669,-3.23962 -6.87441,1.29203 -9.49919,3.3668 z"
     id="path8" />
  <path
     style="fill:#cf932b;fill-opacity:1;stroke:#7f5913;stroke-width:0"
     d="m 54.634163,119.46829 c 1.20243,1.96397 0.87041,8.36193 -2.69265,14.83968 7.48039,8.34451 5.33479,13.36523 6.54042,19.91052 3.61444,-9.90982 -3.06275,-23.20069 5.65142,-31.3834 -5.64669,3.23962 -6.87441,-1.29203 -9.49919,-3.3668 z"
     id="path9" />
  <ellipse
     style="fill:#cd922b;fill-opacity:1;stroke:#7f5913;stroke-width:0"
     id="path10"
     cx="59.774551"
     cy="106.93725"
     rx="7.184514"
     ry="5.5011129" />
  <ellipse
     style="fill:#0d5f50;fill-opacity:1;stroke:#7f5913;stroke-width:0"
     id="ellipse11"
     cx="59.769394"
     cy="106.93725"
     rx="5.8639784"
     ry="4.6594124" />
  <ellipse
     style="fill:#138a74;fill-opacity:1;stroke:#7f5913;stroke-width:0"
     id="ellipse12"
     cx="59.641876"
     cy="106.89474"
     rx="4.6736341"
     ry="3.6391175" />
  <ellipse
     style="fill:#26e1bf;fill-opacity:1;stroke:#7f5913;stroke-width:0"
     id="ellipse13"
     cx="56.017708"
     cy="106.85221"
     rx="0.4542892"
     ry="1.36471" />
  <path
     style="fill:#165d50;fill-opacity:1;stroke:#7f5913;stroke-width:0"
     id="ellipse14"
     d="m 60.558741,103.77357 a 0.63314295,0.0897078 0 0 1 -0.626969,0.0897 0.63314295,0.0897078 0 0 1 -0.639196,-0.088 0.63314295,0.0897078 0 0 1 0.614504,-0.0914 0.63314295,0.0897078 0 0 1 0.65118,0.0862 l -0.632662,0.004 z" />
</svg>
