<?xml version="1.0" encoding="UTF-8" standalone="no"?>
<!-- Created with Inkscape (http://www.inkscape.org/) -->

<svg
   width="59.964207mm"
   height="203.37413mm"
   viewBox="0 0 59.964207 203.37413"
   version="1.1"
   id="svg1"
   xml:space="preserve"
   xmlns="http://www.w3.org/2000/svg"
   xmlns:svg="http://www.w3.org/2000/svg"><defs
     id="defs1" /><ellipse
     style="fill:#6e472e;stroke:#7f5913;stroke-width:0"
     id="path2"
     ry="49.34314"
     rx="11.435982"
     cy="101.58138"
     cx="48.528225" /><rect
     style="fill:#5d3c27;fill-opacity:1;stroke:#7f5913;stroke-width:0;stroke-dasharray:none;stroke-opacity:1"
     id="rect4"
     width="20.405899"
     height="98.425591"
     x="25.18535"
     y="51.911327" /><g
     id="layer1"
     transform="translate(-81.000036,-31.373966)"><rect
       style="fill:#6e472e;fill-opacity:1;stroke:#b8821b;stroke-width:0;stroke-dasharray:none"
       id="rect1"
       width="11.721502"
       height="134.99057"
       x="92.679581"
       y="64.5896"
       ry="1.8137448" /><rect
       style="fill:#4f3321;fill-opacity:1;stroke:#7f5913;stroke-width:0;stroke-dasharray:none;stroke-opacity:1"
       id="rect2"
       width="2.3296003"
       height="126.81929"
       x="104.04255"
       y="68.570015"
       ry="0" /><path
       style="fill:#5d3c27;fill-opacity:1;stroke:#7f5913;stroke-width:0;stroke-dasharray:none;stroke-opacity:1"
       id="path3"
       d="m 121.20486,77.676922 -9.09415,-0.08601 -9.09128,0.244486 4.62157,-7.832761 4.3339,-7.995518 4.47259,7.918776 z"
       transform="matrix(0,0.40310332,-0.15577886,0,116.02983,23.516347)" /><rect
       style="fill:#5d3c27;fill-opacity:1;stroke:#7f5913;stroke-width:0;stroke-dasharray:none;stroke-opacity:1"
       id="rect6"
       width="0.82833368"
       height="98.931046"
       x="115.40801"
       y="82.998558"
       ry="0.48205152" /><path
       style="fill:#5d3c27;fill-opacity:1;stroke:#7f5913;stroke-width:0;stroke-dasharray:none;stroke-opacity:1"
       id="path5"
       d="m 121.20486,77.676922 -9.09415,-0.08601 -9.09128,0.244486 4.62157,-7.832761 4.3339,-7.995518 4.47259,7.918776 z"
       transform="matrix(0,-0.40310332,-0.15577886,0,116.02983,113.86503)" /><path
       style="fill:#5d3c27;fill-opacity:1;stroke:#7f5913;stroke-width:0;stroke-dasharray:none;stroke-opacity:1"
       id="path7"
       d="m 121.20486,77.676922 -9.09415,-0.08601 -9.09128,0.244486 4.62157,-7.832761 4.3339,-7.995518 4.47259,7.918776 z"
       transform="matrix(0,0.40310332,-0.15577886,0,116.04486,150.20318)" /></g><rect
     style="fill:#6e472e;fill-opacity:1;stroke:#7f5913;stroke-width:0;stroke-dasharray:none;stroke-opacity:1"
     id="rect5"
     width="14.284129"
     height="119.37561"
     x="34.878147"
     y="41.436321"
     ry="2.9646263" /><path
     style="fill:#6e472e;fill-opacity:1;stroke:#7f5913;stroke-width:0;stroke-dasharray:none;stroke-opacity:1"
     d="m 34.854334,42.238017 c 0.11083,2.73891 -0.0798,0.637394 0.16167,3.941702 l 14.11408,0.494102 -0.15294,-5.194064 C 47.510724,14.391943 31.432384,-1.4140027 14.443336,0.09973425 6.8187687,1.2931513 -4.3139513,13.345581 1.7312757,11.380195 10.495977,8.5306703 29.138984,-4.4647287 34.854374,42.238025 Z"
     id="path12" /><path
     style="fill:#cd922b;fill-opacity:1;stroke:#7f5913;stroke-width:0"
     id="path11"
     d="m 63.683409,125.07116 -18.373366,-8.63599 -6.41511,19.26155 -1.7077,-20.2298 -19.888544,4.07513 16.665667,-11.59381 -13.473433,-15.186422 18.373366,8.635992 6.41511,-19.261552 1.707699,20.229792 19.888544,-4.075121 -16.665667,11.593811 z"
     transform="matrix(0.33705128,-0.03315766,0.03646689,0.35524551,30.237164,63.986334)" /><path
     style="fill:#cf932b;fill-opacity:1;stroke:#7f5913;stroke-width:0"
     d="m 43.691864,88.868944 c 1.20243,-1.96397 0.87041,-8.36193 -2.69265,-14.83968 7.48039,-8.344507 5.33479,-13.365228 6.54042,-19.910518 3.61444,9.909818 -3.06275,23.200688 5.65142,31.383398 -5.64669,-3.23962 -6.87441,1.29203 -9.49919,3.3668 z"
     id="path8" /><path
     style="fill:#cf932b;fill-opacity:1;stroke:#7f5913;stroke-width:0"
     d="m 43.451374,113.75923 c 1.20243,1.96397 0.87041,8.36193 -2.69265,14.83968 7.48039,8.34451 5.33479,13.36523 6.54042,19.91052 3.61444,-9.90982 -3.06275,-23.20069 5.65142,-31.3834 -5.64669,3.23962 -6.87441,-1.29203 -9.49919,-3.3668 z"
     id="path9" /><ellipse
     style="fill:#cd922b;fill-opacity:1;stroke:#7f5913;stroke-width:0"
     id="path10"
     cx="48.591763"
     cy="101.2282"
     rx="7.184514"
     ry="5.5011129" /><ellipse
     style="fill:#0d5f50;fill-opacity:1;stroke:#7f5913;stroke-width:0"
     id="ellipse11"
     cx="48.586605"
     cy="101.2282"
     rx="5.8639784"
     ry="4.6594124" /><ellipse
     style="fill:#138a74;fill-opacity:1;stroke:#7f5913;stroke-width:0"
     id="ellipse12"
     cx="48.459087"
     cy="101.18568"
     rx="4.6736341"
     ry="3.6391175" /><path
     style="fill:#6e472e;fill-opacity:1;stroke:#7f5913;stroke-width:0;stroke-dasharray:none;stroke-opacity:1"
     d="m 34.896854,161.13611 c 0.11083,-2.73891 -0.0798,-0.6374 0.16167,-3.94171 l 14.11408,-0.4941 -0.15294,5.19407 c -1.46642,27.08781 -17.54476,42.89375 -34.533816,41.38002 C 6.8612807,202.08097 -4.2714393,190.02854 1.7737877,191.99393 10.538489,194.84345 29.181504,207.83885 34.896894,161.1361 Z"
     id="path15" /><path
     style="fill:#cf932b;fill-opacity:1;stroke:#7f5913;stroke-width:0"
     id="path16"
     d="m 99.05364,232.88233 -3.364287,-1.01916 -2.587434,2.37956 1.019168,-3.36429 -2.379561,-2.58743 3.364287,1.01916 2.587434,-2.37956 -1.019168,3.36429 z"
     transform="matrix(0.66702282,0,0,0.66595441,-48.705291,45.760653)" /><path
     style="fill:#cf932b;fill-opacity:1;stroke:#7f5913;stroke-width:0"
     id="path17"
     d="m 99.05364,232.88233 -3.364287,-1.01916 -2.587434,2.37956 1.019168,-3.36429 -2.379561,-2.58743 3.364287,1.01916 2.587434,-2.37956 -1.019168,3.36429 z"
     transform="matrix(0.66702282,0,0,-0.66595441,-48.224319,157.36609)" /><path
     style="fill:#65e3c2;fill-opacity:1;stroke-width:0.01825"
     d="m 52.066444,101.16499 c -0.0238,0.0145 -0.13389,0.0736 -0.2447,0.13122 -0.1108,0.0576 -0.29003,0.15748 -0.39829,0.2219 -0.10825,0.0645 -0.26484,0.16709 -0.34797,0.22812 -0.0831,0.061 -0.26445,0.2215 -0.4029,0.3566 -0.13846,0.1351 -0.25616,0.24125 -0.26155,0.23591 -0.006,-0.006 -0.0143,-0.0497 -0.0198,-0.0986 -0.009,-0.0791 -0.003,-0.10068 0.0559,-0.1962 0.0659,-0.10733 0.0659,-0.10733 0.0376,-0.21822 -0.0155,-0.061 -0.0501,-0.15392 -0.0767,-0.2065 -0.0266,-0.0526 -0.0962,-0.14091 -0.15466,-0.19628 -0.0585,-0.0554 -0.14568,-0.11815 -0.19382,-0.13947 -0.0575,-0.0255 -0.13887,-0.0416 -0.23717,-0.0469 -0.11669,-0.007 -0.17721,2.1e-4 -0.27472,0.0298 -0.0688,0.0209 -0.16627,0.0634 -0.21663,0.0948 -0.0504,0.0313 -0.13149,0.0951 -0.18027,0.1417 -0.0488,0.0466 -0.12163,0.13234 -0.16187,0.1906 -0.0402,0.0583 -0.0963,0.15237 -0.12448,0.20912 -0.0283,0.0568 -0.0734,0.17278 -0.10039,0.2578 -0.0269,0.085 -0.0769,0.3186 -0.11087,0.51905 -0.0388,0.22864 -0.0829,0.4223 -0.11834,0.51962 -0.0311,0.0854 -0.0946,0.2197 -0.14108,0.29858 -0.0495,0.0839 -0.13886,0.19665 -0.21559,0.27185 -0.081,0.0794 -0.17966,0.15364 -0.25829,0.19444 -0.07,0.0363 -0.18081,0.0822 -0.24629,0.10199 -0.0655,0.0198 -0.16869,0.0417 -0.22937,0.0486 -0.0771,0.008 -0.17914,0.002 -0.33883,-0.0243 -0.12567,-0.0203 -0.2905,-0.0571 -0.3663,-0.0816 -0.0758,-0.0246 -0.21455,-0.0796 -0.30834,-0.12228 l -0.17052,-0.0776 0.24424,-0.0411 c 0.13432,-0.0226 0.31016,-0.0626 0.39075,-0.0889 0.0806,-0.0263 0.21644,-0.0804 0.30191,-0.12013 0.0854,-0.0398 0.24725,-0.13301 0.35949,-0.20723 0.11225,-0.0742 0.25344,-0.18321 0.31374,-0.24217 0.0604,-0.059 0.18013,-0.21268 0.26627,-0.34159 0.0862,-0.12892 0.23918,-0.39159 0.34009,-0.58372 0.10091,-0.19213 0.21706,-0.39844 0.25811,-0.45848 0.0411,-0.0601 0.11664,-0.15924 0.16795,-0.22046 0.0513,-0.0612 0.14806,-0.1516 0.21499,-0.20083 0.067,-0.0492 0.15263,-0.099 0.19039,-0.1105 0.0378,-0.0115 0.0687,-0.0316 0.0687,-0.0446 0,-0.013 -0.035,-0.0391 -0.0779,-0.0581 -0.0428,-0.0191 -0.1274,-0.0719 -0.18798,-0.11738 -0.0606,-0.0455 -0.15461,-0.13468 -0.20893,-0.19811 -0.0544,-0.0634 -0.13389,-0.16895 -0.17683,-0.23447 -0.0429,-0.0655 -0.16945,-0.29312 -0.28115,-0.50576 -0.11169,-0.212646 -0.2329,-0.433176 -0.26938,-0.490086 -0.0364,-0.0569 -0.10439,-0.15086 -0.15094,-0.2088 -0.0466,-0.0579 -0.1547,-0.16372 -0.24032,-0.23507 -0.0856,-0.0713 -0.22365,-0.17379 -0.30673,-0.22766 -0.0831,-0.0538 -0.20672,-0.12312 -0.27473,-0.15386 -0.0679,-0.0307 -0.18984,-0.0782 -0.27076,-0.1055 -0.081,-0.0272 -0.25192,-0.0692 -0.38001,-0.093 -0.12811,-0.0239 -0.23291,-0.0484 -0.23292,-0.0544 -1e-5,-0.006 0.0754,-0.0458 0.1676,-0.0883 0.0922,-0.0425 0.26319,-0.10184 0.38002,-0.13179 0.15583,-0.04 0.27098,-0.0569 0.4322,-0.0636 0.16504,-0.007 0.25118,-0.002 0.34589,0.0203 0.0694,0.0162 0.18252,0.059 0.25143,0.0948 0.0689,0.0359 0.17826,0.11357 0.243,0.17246 0.0648,0.059 0.15882,0.17077 0.2091,0.24859 0.0502,0.0779 0.11181,0.19034 0.13674,0.25004 0.025,0.0597 0.0625,0.16173 0.0836,0.22675 0.0211,0.065 0.0601,0.24504 0.0867,0.40008 0.0267,0.15503 0.0679,0.35962 0.0918,0.454636 0.026,0.10399 0.0815,0.24855 0.13943,0.36314 0.0785,0.15545 0.12197,0.21601 0.23691,0.33014 0.10904,0.10828 0.17694,0.15757 0.30136,0.2188 0.1575,0.0775 0.1642,0.0791 0.34548,0.0791 0.17183,0 0.19346,-0.005 0.30673,-0.0595 0.0784,-0.0383 0.15339,-0.0938 0.2103,-0.15569 0.0487,-0.0529 0.11114,-0.14229 0.13891,-0.19868 0.0278,-0.0564 0.0595,-0.1418 0.0707,-0.18983 0.0196,-0.0844 0.0179,-0.0911 -0.0483,-0.20144 -0.0614,-0.10226 -0.0673,-0.12292 -0.0569,-0.1986 0.007,-0.0464 0.0151,-0.08779 0.0192,-0.0919 0.005,-0.005 0.027,0.005 0.0509,0.0209 0.0239,0.0155 0.10452,0.0951 0.17914,0.176761 0.0746,0.0817 0.21031,0.21019 0.30151,0.28564 0.0913,0.0754 0.24415,0.18807 0.33985,0.25028 0.0957,0.0622 0.32118,0.1909 0.50108,0.28594 0.31699,0.16745 0.32577,0.17361 0.28388,0.19926 z m -0.62409,-0.0972 c -0.0526,-0.0241 -0.1647,-0.087 -0.24923,-0.13951 -0.0845,-0.0525 -0.15952,-0.0955 -0.16665,-0.0955 -0.007,0 -0.0257,0.0266 -0.0414,0.0592 -0.0156,0.0326 -0.0583,0.0981 -0.095,0.14564 -0.0366,0.0475 -0.0665,0.0946 -0.0665,0.10441 0,0.01 0.0299,0.0568 0.0665,0.10442 0.0366,0.0475 0.0794,0.11313 0.095,0.14564 0.0156,0.0326 0.0349,0.0591 0.0428,0.0591 0.007,0 0.0703,-0.0356 0.13855,-0.0791 0.0683,-0.0435 0.17982,-0.10966 0.24782,-0.14705 0.0679,-0.0373 0.12362,-0.0781 0.12362,-0.0906 0,-0.0124 -0.043,-0.0424 -0.0955,-0.0666 z m -0.69127,0.30273 c -0.009,-0.0393 -0.0425,-0.10781 -0.0739,-0.15218 -0.0571,-0.0803 -0.0571,-0.0808 -0.0216,-0.11945 0.0196,-0.0213 0.0501,-0.067 0.0677,-0.10159 0.0176,-0.0346 0.0361,-0.11365 0.0412,-0.17575 0.005,-0.0621 0.004,-0.13407 -0.003,-0.15994 -0.007,-0.0259 -0.0242,-0.0471 -0.039,-0.0471 -0.0149,0 -0.0271,0.0103 -0.0273,0.0227 -8e-5,0.0125 -0.0202,0.0656 -0.0448,0.11798 -0.0245,0.0523 -0.0839,0.13696 -0.13197,0.18793 -0.048,0.051 -0.12262,0.11324 -0.16578,0.13835 -0.0431,0.0251 -0.0782,0.0551 -0.0779,0.0667 2e-4,0.0115 0.0329,0.0358 0.0726,0.0541 0.0398,0.0181 0.10985,0.0709 0.15592,0.11737 0.046,0.0464 0.1102,0.13949 0.14254,0.2069 0.0324,0.0674 0.0684,0.12302 0.0802,0.12358 0.0118,6.3e-4 0.0256,-0.009 0.0306,-0.0217 0.005,-0.0124 0.01,-0.0595 0.0103,-0.10457 6.3e-4,-0.045 -0.007,-0.11401 -0.0157,-0.15333 z m -0.52317,0.71976 c -0.0166,0.052 -0.0519,0.10621 -0.0917,0.14094 -0.0356,0.0311 -0.0762,0.0564 -0.0901,0.0564 -0.0139,0 -0.0384,-0.005 -0.0543,-0.0111 -0.0202,-0.007 -0.0289,-0.0346 -0.0289,-0.089 0,-0.0429 -0.0167,-0.13165 -0.0371,-0.19726 -0.0204,-0.0656 -0.0591,-0.14533 -0.0861,-0.17716 -0.0269,-0.0318 -0.0759,-0.0691 -0.10882,-0.0826 -0.0328,-0.0137 -0.10745,-0.0246 -0.1657,-0.0244 -0.0631,2e-4 -0.13601,0.0139 -0.18045,0.0341 -0.041,0.0184 -0.10096,0.0653 -0.13322,0.10416 -0.0322,0.0388 -0.0676,0.10329 -0.0785,0.14329 -0.0109,0.0401 -0.0154,0.11558 -0.0101,0.16791 0.006,0.0564 0.0429,0.16745 0.0911,0.27279 0.0447,0.0977 0.11535,0.26491 0.15698,0.37161 0.0417,0.1067 0.0963,0.27038 0.12149,0.36372 0.0252,0.0933 0.0458,0.21955 0.0459,0.28046 2e-5,0.0609 -0.0163,0.17396 -0.0361,0.25122 -0.0199,0.0772 -0.0632,0.19096 -0.0961,0.25267 -0.033,0.0617 -0.11213,0.16721 -0.17588,0.23443 -0.0637,0.0673 -0.16219,0.15273 -0.21876,0.19001 -0.0565,0.0373 -0.16511,0.0919 -0.24122,0.12127 -0.0761,0.0294 -0.21256,0.0688 -0.30321,0.0874 -0.0907,0.0186 -0.23229,0.034 -0.31472,0.0341 -0.0824,1.4e-4 -0.20627,-0.0115 -0.27516,-0.0259 -0.0689,-0.0144 -0.14822,-0.0349 -0.17631,-0.0454 -0.0511,-0.0193 -0.0511,-0.0193 0.10116,-0.12214 0.0838,-0.0565 0.18518,-0.12792 0.22548,-0.15855 0.0403,-0.0307 0.12198,-0.0969 0.18155,-0.14724 0.0595,-0.0503 0.17211,-0.16771 0.25013,-0.26083 0.078,-0.0931 0.17214,-0.22653 0.20915,-0.29646 0.0386,-0.0729 0.0901,-0.21682 0.12072,-0.33727 0.0478,-0.18801 0.0534,-0.24025 0.0534,-0.49625 0,-0.22754 0.007,-0.31558 0.037,-0.42997 0.0203,-0.0791 0.0707,-0.21129 0.11174,-0.29371 0.0482,-0.0967 0.1114,-0.18708 0.17818,-0.25483 0.0569,-0.0577 0.14869,-0.12893 0.20397,-0.15823 0.081,-0.0429 0.12909,-0.0547 0.24724,-0.0606 0.11745,-0.006 0.16715,2.1e-4 0.24893,0.0309 0.0562,0.0211 0.13684,0.0677 0.1792,0.10373 0.0424,0.036 0.093,0.0966 0.11252,0.13458 0.0196,0.038 0.0397,0.10056 0.0447,0.13898 0.005,0.0385 -0.003,0.10789 -0.0179,0.15436 z m 0.0107,-1.71212 c -0.007,0.035 -0.0263,0.089 -0.0428,0.12006 -0.0164,0.0311 -0.0592,0.0822 -0.0953,0.11354 -0.036,0.0314 -0.10035,0.0755 -0.14287,0.0981 -0.0636,0.0337 -0.10655,0.0409 -0.24217,0.041 -0.14789,1.4e-4 -0.17765,-0.006 -0.28964,-0.0586 -0.0793,-0.0373 -0.16003,-0.0945 -0.22127,-0.15679 -0.0616,-0.0627 -0.12329,-0.15305 -0.17089,-0.25046 -0.0409,-0.0837 -0.0929,-0.22192 -0.11552,-0.306936 -0.034,-0.12794 -0.0417,-0.20939 -0.0448,-0.47283 -0.003,-0.26239 -0.0108,-0.34378 -0.0436,-0.46373 -0.022,-0.08 -0.0637,-0.19603 -0.0929,-0.25782 -0.0291,-0.0618 -0.0866,-0.16154 -0.12768,-0.22164 -0.0411,-0.0601 -0.12117,-0.15908 -0.17791,-0.21993 -0.0568,-0.0608 -0.16415,-0.15937 -0.2387,-0.21891 -0.0745,-0.0595 -0.21911,-0.16711 -0.32128,-0.23904 -0.16481,-0.11603 -0.18124,-0.13241 -0.14581,-0.14542 0.022,-0.008 0.10735,-0.0283 0.18977,-0.0448 0.11225,-0.0226 0.20289,-0.0276 0.36152,-0.0199 0.11642,0.006 0.26113,0.0235 0.32156,0.0398 0.0604,0.0163 0.19328,0.0695 0.29518,0.11853 0.14499,0.0696 0.21713,0.11878 0.33173,0.22583 0.10471,0.0978 0.16557,0.17295 0.21357,0.26363 0.037,0.0697 0.0834,0.18994 0.10324,0.26706 0.0199,0.0771 0.0361,0.18597 0.036,0.24188 -7e-5,0.0559 -0.0163,0.16853 -0.036,0.25028 -0.0197,0.0817 -0.0557,0.2045 -0.0798,0.27279 -0.0241,0.0682 -0.0992,0.2463 -0.16669,0.39558 -0.0691,0.15263 -0.12722,0.308956 -0.13297,0.357156 -0.006,0.0472 -4.2e-4,0.12632 0.0115,0.17593 0.012,0.0496 0.0468,0.12031 0.0774,0.15711 0.0305,0.0368 0.0874,0.083 0.12631,0.10277 0.0474,0.024 0.10744,0.0358 0.18211,0.0358 0.0747,0 0.13465,-0.0118 0.18214,-0.0358 0.0389,-0.0197 0.0876,-0.057 0.10803,-0.0828 0.0205,-0.0258 0.0504,-0.0867 0.0667,-0.13529 0.0163,-0.0486 0.0355,-0.14016 0.0427,-0.20356 0.013,-0.11379 0.0139,-0.11522 0.0672,-0.11131 0.0298,0.002 0.0749,0.0194 0.10036,0.0383 0.0255,0.0188 0.0598,0.058 0.0764,0.0869 0.0165,0.0289 0.0341,0.0813 0.0391,0.11632 0.005,0.035 0.004,0.0923 -0.004,0.12729 z m -1.86762,1.41849 c -0.0493,0.14503 -0.1197,0.33326 -0.15653,0.41827 -0.0368,0.085 -0.0962,0.20777 -0.13193,0.27279 -0.0357,0.065 -0.10476,0.17139 -0.1534,0.2364 -0.0487,0.065 -0.13223,0.15979 -0.18579,0.21062 -0.0535,0.0508 -0.13032,0.11739 -0.17062,0.14792 -0.0403,0.0305 -0.12683,0.0846 -0.1923,0.12016 -0.0655,0.0356 -0.18085,0.0824 -0.2564,0.10391 -0.0952,0.0271 -0.21069,0.0421 -0.37605,0.0487 -0.20586,0.008 -0.26004,0.005 -0.39377,-0.0299 -0.0853,-0.0218 -0.23253,-0.0767 -0.3272,-0.12216 -0.14359,-0.069 -0.19853,-0.10877 -0.33144,-0.24009 -0.0876,-0.0866 -0.2016,-0.2202 -0.2533,-0.29694 -0.0517,-0.0767 -0.1143,-0.18518 -0.13914,-0.24096 -0.0248,-0.0558 -0.0413,-0.10141 -0.0366,-0.10141 0.005,0 0.064,0.0277 0.13177,0.0616 0.0678,0.0339 0.1769,0.0781 0.24257,0.0981 0.0657,0.0201 0.19342,0.0507 0.28387,0.0679 0.0977,0.0186 0.25025,0.0312 0.37572,0.0311 0.11686,-2e-4 0.28461,-0.0139 0.37545,-0.0304 0.0903,-0.0167 0.25059,-0.0547 0.35617,-0.0848 0.10559,-0.03 0.24569,-0.0758 0.31135,-0.10157 0.0657,-0.0258 0.16883,-0.0713 0.22927,-0.10112 0.0604,-0.0299 0.17994,-0.0994 0.26556,-0.15454 0.0879,-0.0566 0.23216,-0.17646 0.33127,-0.27511 0.0966,-0.0961 0.20165,-0.20734 0.23351,-0.24713 0.0319,-0.0398 0.0578,-0.0685 0.0577,-0.0636 -1.3e-4,0.005 -0.0405,0.12735 -0.0897,0.27238 z m 7.1e-4,-1.14087 c -0.0489,-0.0584 -0.15402,-0.16592 -0.23352,-0.23896 -0.0795,-0.073 -0.22317,-0.18499 -0.31931,-0.24877 -0.0961,-0.0637 -0.25272,-0.15254 -0.34797,-0.197216 -0.0953,-0.0447 -0.23839,-0.10292 -0.31808,-0.12936 -0.0797,-0.0265 -0.21567,-0.0643 -0.30218,-0.0841 -0.10748,-0.0246 -0.25625,-0.0393 -0.46959,-0.0464 -0.25174,-0.008 -0.34183,-0.005 -0.46473,0.0203 -0.0838,0.0169 -0.21942,0.0517 -0.30126,0.0772 -0.0819,0.0257 -0.19003,0.068 -0.24039,0.0944 -0.0504,0.0262 -0.0983,0.0507 -0.10651,0.0544 -0.008,0.004 0.0156,-0.0536 0.053,-0.12719 0.0373,-0.0736 0.107,-0.19141 0.15488,-0.26186 0.0478,-0.0705 0.15322,-0.18992 0.2341,-0.26546 0.0946,-0.0883 0.19817,-0.16368 0.29044,-0.21118 0.0789,-0.0406 0.19697,-0.0914 0.26244,-0.11288 0.0655,-0.0214 0.19322,-0.0475 0.28388,-0.0578 0.1198,-0.0136 0.2122,-0.0129 0.33821,0.003 0.0954,0.0119 0.22311,0.037 0.28388,0.0557 0.0607,0.0187 0.17312,0.0706 0.24966,0.11524 0.0765,0.0446 0.20478,0.14242 0.28496,0.21731 0.0802,0.0749 0.1961,0.20644 0.25762,0.29231 0.0616,0.0859 0.14913,0.23175 0.1947,0.32418 0.0456,0.09248 0.13279,0.314526 0.19385,0.493566 0.061,0.17904 0.11099,0.32881 0.11099,0.33283 0,0.005 -0.0401,-0.0404 -0.089,-0.0989 z"
     id="path1" /></svg>
