<?xml version="1.0" encoding="UTF-8" standalone="no"?>
<!-- Created with Inkscape (http://www.inkscape.org/) -->

<svg
   width="178.42909mm"
   height="178.42909mm"
   viewBox="0 0 178.42909 178.42909"
   version="1.1"
   id="svg1"
   xmlns="http://www.w3.org/2000/svg"
   xmlns:svg="http://www.w3.org/2000/svg">
  <defs
     id="defs1" />
  <g
     id="layer1"
     transform="translate(-17.620613,-59.498436)">
    <circle
       style="fill:#fff9ef;fill-opacity:1;stroke-width:0.921723"
       id="path3"
       cx="106.83516"
       cy="148.71298"
       r="89.214546" />
    <circle
       style="fill:#efecdd;fill-opacity:1;stroke-width:0.820374"
       id="ellipse4"
       cx="106.42648"
       cy="147.375"
       r="79.345947" />
    <circle
       style="fill:#fff9ef;fill-opacity:1;stroke-width:0.708596"
       id="circle4"
       cx="106.81416"
       cy="147.10049"
       r="68.769783" />
    <ellipse
       style="fill:#54bdab;fill-opacity:1;stroke-width:0.210384"
       id="path1"
       ry="23.81403"
       rx="27.70812"
       cy="134.22038"
       cx="107.4548" />
    <ellipse
       style="fill:#fff9ef;fill-opacity:1;stroke-width:0.148599"
       id="ellipse1"
       ry="16.580446"
       rx="19.853857"
       cy="16.704649"
       cx="167.64243"
       transform="matrix(0.69519341,0.71882273,-0.5545061,0.83217966,0,0)" />
    <rect
       style="fill:#54bdab;fill-opacity:1;stroke-width:0.194267"
       id="rect3"
       width="64.449608"
       height="7.4418874"
       x="74.669159"
       y="171.2764"
       ry="3.7209437" />
    <path
       style="fill:#fff9ef;fill-opacity:1;stroke-width:0.264583"
       id="path4"
       d="M 123.69767,104.89106 103.72047,99.977238 83.743276,95.063412 97.987373,80.219564 112.23147,65.375717 117.96457,85.13339 Z"
       transform="rotate(-12.752201,120.77023,93.691607)" />
    <path
       style="fill:#fff9ef;fill-opacity:1;stroke-width:0.264583"
       id="path5"
       d="m 122.23212,105.09192 -19.9772,-4.91382 -19.977197,-4.913829 14.244097,-14.843847 14.2441,-14.843848 5.7331,19.757673 z"
       transform="rotate(-102.7522,101.90421,140.42925)" />
    <path
       style="fill:#fff9ef;fill-opacity:1;stroke-width:0.264583"
       id="path6"
       d="m 122.23212,105.09192 -19.9772,-4.91382 -19.977197,-4.913829 14.244097,-14.843847 14.2441,-14.843848 5.7331,19.757673 z"
       transform="rotate(167.2478,100.23992,146.2765)" />
    <path
       style="fill:#fff9ef;fill-opacity:1;stroke-width:0.264583"
       id="path7"
       d="m 122.23212,105.09192 -19.9772,-4.91382 -19.977197,-4.913829 14.244097,-14.843847 14.2441,-14.843848 5.7331,19.757673 z"
       transform="rotate(77.2478,97.31242,153.20458)" />
    <rect
       style="fill:#54bdab;fill-opacity:1;stroke-width:0.194267"
       id="rect7"
       width="64.449608"
       height="7.4418874"
       x="75.403702"
       y="154.87163"
       ry="3.7209437" />
    <rect
       style="fill:#54bdab;fill-opacity:1;stroke-width:0.194267"
       id="rect8"
       width="64.449608"
       height="7.4418874"
       x="74.669159"
       y="106.14697"
       ry="3.7209437" />
    <rect
       style="fill:#803300;fill-opacity:1;stroke-width:0.101343"
       id="rect1"
       width="37.40609"
       height="3.489373"
       x="74.33046"
       y="-158.38513"
       ry="1.7446865"
       transform="rotate(94.959311)" />
    <rect
       style="fill:#803300;fill-opacity:1;stroke-width:0.101343"
       id="rect2"
       width="37.40609"
       height="3.489373"
       x="72.236328"
       y="-168.21611"
       ry="1.7446865"
       transform="rotate(95.335787)" />
    <rect
       style="fill:#803300;fill-opacity:1;stroke-width:0.121273"
       id="rect4"
       width="36.649982"
       height="5.0998344"
       x="-162.42311"
       y="-134.75609"
       ry="2.5499172"
       transform="matrix(-0.97563351,0.21940658,-0.09665404,-0.99531804,0,0)" />
    <rect
       style="fill:#803300;fill-opacity:1;stroke-width:0.114578"
       id="rect5"
       width="35.110146"
       height="4.7519155"
       x="-159.83122"
       y="-145.68573"
       ry="2.3759577"
       transform="matrix(-0.97697713,0.21334408,-0.09950936,-0.99503663,0,0)" />
  </g>
</svg>
